/* XPM */
static char * document_save_48_xpm[] = {
"48 48 417 2",
"  	c None",
". 	c #204A87",
"+ 	c #234D89",
"@ 	c #2B538E",
"# 	c #2D558F",
"$ 	c #2C548E",
"% 	c #254E8A",
"& 	c #214A87",
"* 	c #224B88",
"= 	c #396097",
"- 	c #6182B0",
"; 	c #7C99C0",
"> 	c #8CA6C9",
", 	c #8DA8CA",
"' 	c #8BA6C9",
") 	c #7F9CC1",
"! 	c #6A89B4",
"~ 	c #43689C",
"{ 	c #264F8A",
"] 	c #345B93",
"^ 	c #7290B9",
"/ 	c #8EA9CC",
"( 	c #90ABCD",
"_ 	c #93ADCE",
": 	c #93ADCF",
"< 	c #92ACCE",
"[ 	c #8FAACD",
"} 	c #8CA8CB",
"| 	c #809CC1",
"1 	c #456A9D",
"2 	c #234C89",
"3 	c #224C88",
"4 	c #476A9D",
"5 	c #97AFCE",
"6 	c #98B0D1",
"7 	c #8CA8CC",
"8 	c #89A5CA",
"9 	c #85A2C8",
"0 	c #81A0C7",
"a 	c #83A1C7",
"b 	c #8CA7CB",
"c 	c #6281AE",
"d 	c #28518C",
"e 	c #214B88",
"f 	c #4D6FA0",
"g 	c #A7BBD6",
"h 	c #A0B7D4",
"i 	c #8AA3C6",
"j 	c #7693BA",
"k 	c #728FB8",
"l 	c #7F9BC1",
"m 	c #92ACCD",
"n 	c #89A6CA",
"o 	c #86A3C9",
"p 	c #7F9EC6",
"q 	c #7C9CC4",
"r 	c #7A9AC3",
"s 	c #88A5CA",
"t 	c #6988B2",
"u 	c #3D6197",
"v 	c #ACBDD5",
"w 	c #6E8BB4",
"x 	c #3B6095",
"y 	c #2F5790",
"z 	c #6182AE",
"A 	c #8FA9CC",
"B 	c #87A4C9",
"C 	c #809FC6",
"D 	c #7D9DC5",
"E 	c #7798C2",
"F 	c #7496C1",
"G 	c #5C7CAA",
"H 	c #8CA1C1",
"I 	c #43679A",
"J 	c #7898C2",
"K 	c #7194BF",
"L 	c #7193BF",
"M 	c #8AA5C9",
"N 	c #3B6096",
"O 	c #5374A3",
"P 	c #375D93",
"Q 	c #4E71A3",
"R 	c #8DA8CB",
"S 	c #7899C2",
"T 	c #7596C1",
"U 	c #7294C0",
"V 	c #6F92BE",
"W 	c #6C8FBD",
"X 	c #7999C3",
"Y 	c #6F8DB7",
"Z 	c #305790",
"` 	c #3F6398",
" .	c #7996BD",
"..	c #7D9CC5",
"+.	c #6F92BF",
"@.	c #698DBC",
"#.	c #335A92",
"$.	c #355B92",
"%.	c #535353",
"&.	c #3F5067",
"*.	c #5072A1",
"=.	c #6C90BD",
"-.	c #678CBB",
";.	c #6489B9",
">.	c #819FC7",
",.	c #5274A4",
"'.	c #3B4F6C",
").	c #8A8A8A",
"!.	c #B3B3B3",
"~.	c #B5B5B5",
"{.	c #B4B4B4",
"].	c #AEB0B4",
"^.	c #4B6B9A",
"/.	c #678BBB",
"(.	c #6187B8",
"_.	c #7395C0",
":.	c #6E8CB6",
"<.	c #617797",
"[.	c #AFAFAF",
"}.	c #AEAEAE",
"|.	c #ADADAD",
"1.	c #A9A9A9",
"2.	c #737373",
"3.	c #767676",
"4.	c #F6F6F6",
"5.	c #EFEFEF",
"6.	c #EDEDED",
"7.	c #ECECEC",
"8.	c #627EA7",
"9.	c #86A1C5",
"0.	c #6D90BE",
"a.	c #668BBA",
"b.	c #5E85B7",
"c.	c #688DBB",
"d.	c #819CC2",
"e.	c #6A85AB",
"f.	c #E7E7E7",
"g.	c #E6E6E6",
"h.	c #E5E5E5",
"i.	c #E4E4E4",
"j.	c #E3E3E3",
"k.	c #DCDCDC",
"l.	c #595959",
"m.	c #B7B7B7",
"n.	c #F1F1F1",
"o.	c #C2C9D3",
"p.	c #9FAEC3",
"q.	c #A0AEC3",
"r.	c #506F9D",
"s.	c #6388B9",
"t.	c #6087B8",
"u.	c #5B83B5",
"v.	c #6288B9",
"w.	c #89A4C7",
"x.	c #446697",
"y.	c #9BA9BE",
"z.	c #9AA9BE",
"A.	c #9AA9BD",
"B.	c #99A8BD",
"C.	c #99A7BC",
"D.	c #BEC4CC",
"E.	c #EAEAEA",
"F.	c #898989",
"G.	c #646464",
"H.	c #E9E9E9",
"I.	c #D1D5DA",
"J.	c #4B6C9B",
"K.	c #3F6498",
"L.	c #587AA9",
"M.	c #597BAA",
"N.	c #5A7CAA",
"O.	c #5B7CAB",
"P.	c #5C7DAB",
"Q.	c #85A1C5",
"R.	c #6A8EBC",
"S.	c #5F86B7",
"T.	c #5D84B6",
"U.	c #5B82B5",
"V.	c #5880B4",
"W.	c #92ABCC",
"X.	c #6584AF",
"Y.	c #6584B0",
"Z.	c #6484AF",
"`.	c #6383AF",
" +	c #6282AE",
".+	c #416599",
"++	c #496A99",
"@+	c #CBCED3",
"#+	c #E2E2E2",
"$+	c #C4C4C4",
"%+	c #565656",
"&+	c #8E8E8E",
"*+	c #F5F5F5",
"=+	c #E1E1E1",
"-+	c #CAD0D7",
";+	c #496A9B",
">+	c #7291BA",
",+	c #7495C1",
"'+	c #7395C1",
")+	c #5C83B6",
"!+	c #5A82B5",
"~+	c #5780B4",
"{+	c #557EB3",
"]+	c #567FB3",
"^+	c #6E91BE",
"/+	c #6A8DBC",
"(+	c #7F9AC0",
"_+	c #436698",
":+	c #C0C6CE",
"<+	c #DDDDDD",
"[+	c #D9D9D9",
"}+	c #6E6E6E",
"|+	c #575757",
"1+	c #CDCDCD",
"2+	c #EBEBEB",
"3+	c #E0E0E0",
"4+	c #C4CBD4",
"5+	c #476A9B",
"6+	c #7594BC",
"7+	c #7093BF",
"8+	c #5F85B7",
"9+	c #5D85B7",
"0+	c #5C84B6",
"a+	c #547DB2",
"b+	c #527CB1",
"c+	c #4F7AB0",
"d+	c #4C78AF",
"e+	c #4874AD",
"f+	c #4471AB",
"g+	c #426FAA",
"h+	c #85A0C5",
"i+	c #416598",
"j+	c #B6BECA",
"k+	c #DBDBDB",
"l+	c #D7D7D7",
"m+	c #A4A4A4",
"n+	c #545454",
"o+	c #6C6C6C",
"p+	c #F4F4F4",
"q+	c #BFC7D4",
"r+	c #45689B",
"s+	c #7A97BF",
"t+	c #6B8FBD",
"u+	c #5A81B5",
"v+	c #5981B4",
"w+	c #537DB2",
"x+	c #507AB0",
"y+	c #406EAA",
"z+	c #3A69A6",
"A+	c #3566A5",
"B+	c #3465A4",
"C+	c #4C77AF",
"D+	c #839FC5",
"E+	c #AAB5C6",
"F+	c #DADADA",
"G+	c #D8D8D8",
"H+	c #D6D6D6",
"I+	c #5B5B5B",
"J+	c #A7A7A7",
"K+	c #F0F0F0",
"L+	c #DFDFDF",
"M+	c #B1BCCC",
"N+	c #476A9C",
"O+	c #7997BF",
"P+	c #527CB2",
"Q+	c #4B77AE",
"R+	c #4472AB",
"S+	c #3C6BA8",
"T+	c #3667A5",
"U+	c #3565A4",
"V+	c #83A0C6",
"W+	c #97A7BE",
"X+	c #DDDDDE",
"Y+	c #818181",
"Z+	c #E0E0E1",
"`+	c #A2AFC3",
" @	c #3C6197",
".@	c #6A8CB9",
"+@	c #4673AC",
"@@	c #406EA9",
"#@	c #809EC5",
"$@	c #4F71A2",
"%@	c #8296B3",
"&@	c #D9DADA",
"*@	c #DEDEDE",
"=@	c #BBBBBB",
"-@	c #F2F2F2",
";@	c #D8D9D9",
">@	c #92A2B9",
",@	c #3D6298",
"'@	c #7091BD",
")@	c #416FAA",
"!@	c #3868A6",
"~@	c #7B9BC3",
"{@	c #5A7BAA",
"]@	c #6B83A7",
"^@	c #D2D3D4",
"/@	c #686868",
"(@	c #555555",
"_@	c #C0C0C0",
":@	c #D5D5D6",
"<@	c #8799B4",
"[@	c #44689C",
"}@	c #7495C0",
"|@	c #5B779F",
"1@	c #CCCDCF",
"2@	c #D2D2D2",
"3@	c #D3D3D3",
"4@	c #D4D4D4",
"5@	c #9A9A9A",
"6@	c #676767",
"7@	c #D5D5D5",
"8@	c #D0D1D2",
"9@	c #778DAC",
"0@	c #4B6FA1",
"a@	c #7697C1",
"b@	c #3E6DA9",
"c@	c #3666A5",
"d@	c #708EB7",
"e@	c #4D6C99",
"f@	c #BDC1C6",
"g@	c #CECECE",
"h@	c #CFCFCF",
"i@	c #D1D1D1",
"j@	c #CBCBCB",
"k@	c #5C5C5C",
"l@	c #989898",
"m@	c #CBCCCD",
"n@	c #6881A4",
"o@	c #5476A6",
"p@	c #7999C2",
"q@	c #3B6BA7",
"r@	c #7895BD",
"s@	c #426496",
"t@	c #B4B9C0",
"u@	c #C9C9C9",
"v@	c #CACACA",
"w@	c #CCCCCC",
"x@	c #D0D0D0",
"y@	c #797979",
"z@	c #C2C4C6",
"A@	c #5F799F",
"B@	c #416496",
"C@	c #A6AEB9",
"D@	c #C6C6C6",
"E@	c #C8C8C8",
"F@	c #B1B1B1",
"G@	c #BEC0C4",
"H@	c #53709B",
"I@	c #6685B1",
"J@	c #3F6397",
"K@	c #98A3B4",
"L@	c #5E5E5E",
"M@	c #B0B0B0",
"N@	c #C0C3C6",
"O@	c #4D6D9A",
"P@	c #909EB3",
"Q@	c #919191",
"R@	c #626262",
"S@	c #E8E8E8",
"T@	c #B9BEC5",
"U@	c #91A0B5",
"V@	c #CDCDCE",
"W@	c #C3C3C3",
"X@	c #585858",
"Y@	c #747474",
"Z@	c #BABABA",
"`@	c #B2B2B2",
" #	c #EEEEEE",
".#	c #999999",
"+#	c #C1C1C1",
"@#	c #C2C2C2",
"##	c #BFBFBF",
"$#	c #BEBEBE",
"%#	c #BDBDBD",
"&#	c #BCBCBC",
"*#	c #B9B9B9",
"=#	c #B8B8B8",
"-#	c #B6B6B6",
";#	c #ACACAC",
">#	c #ABABAB",
",#	c #AAAAAA",
"'#	c #A8A8A8",
")#	c #929292",
"!#	c #A6A6A6",
"~#	c #A3A3A3",
"{#	c #A2A2A2",
"]#	c #A1A1A1",
"^#	c #A0A0A0",
"/#	c #9F9F9F",
"(#	c #C7C7C7",
"_#	c #9D9D9D",
":#	c #A5A5A5",
"<#	c #909090",
"[#	c #C5C5C5",
"}#	c #878787",
"|#	c #8D8D8D",
"1#	c #979797",
"2#	c #9B9B9B",
"3#	c #8F8F8F",
"4#	c #888888",
"5#	c #969696",
"6#	c #949494",
"7#	c #939393",
"8#	c #8C8C8C",
"9#	c #8B8B8B",
"0#	c #505050",
"a#	c #4D4D4D",
"b#	c #4A4A4A",
"c#	c #4E4E4E",
"d#	c #6A6A6A",
"e#	c #696969",
"f#	c #666666",
"g#	c #656565",
"h#	c #636363",
"i#	c #616161",
"j#	c #606060",
"                                                                                                ",
"                          . + @ # $ % &                                                         ",
"                      * = - ; > , ' ) ! ~ {                                                     ",
"                    ] ^ / ( _ : < [ } } / | 1 2                                                 ",
"                3 4 5 6 ( / [ [ / 7 8 9 0 a b c d                                               ",
"              e f g h i j k l m ( n o a p q r s t +                                             ",
"              u v w x 2 . . & y z A B C D r E F 8 G e                                           ",
"            $ H I +             e ~ , 0 r J F K L M N                                           ",
"            O P                   & Q R S T U V W X Y +                                         ",
"          Z `                       %  ...U +.W @.@.' #.                                        ",
"          $.2         %.%.%.%.%.%.%.&.*.o +.=.@.-.;.>.,.'.%.%.%.%.%.%.%.%.                      ",
"                  %.).!.~.{.{.{.{.!.].^.' =.@./.;.(._.:.<.[.[.[.}.}.|.|.1.2.                    ",
"                  3.4.5.6.6.6.6.6.7.7.8.9.0.a.;.(.b.c.d.e.f.g.g.h.i.i.j.g.k.l.                  ",
"                %.m.n.o.p.p.q.q.q.p.p.r.l =.s.t.b.u.v.w.x.y.y.z.A.B.B.C.D.E.F.                  ",
"                G.H.g.I.J.K.L.L.M.N.O.P.Q.R.S.T.U.V.b.W.X.X.Y.Z.`. +.+++@+#+$+%+                ",
"                &+*+=+h.-+;+>+C _.,+F T '+v.)+!+~+{+]+0.V ^+W /+B (+_+:+<+[+i.}+                ",
"              |+1+2+3+j.j.4+5+6+7+8+9+0+u.!+V.]+a+b+c+d+e+f+g+(.h+i+j+k+k+l+i.m+n+              ",
"              o+p+#+3+=+i.f.q+r+s+t+u+v+~+]+{+w+x+e+y+z+A+B+C+D+.+E+<+F+G+l+k.H+I+              ",
"              J+K+L+=+h.g.g.g.M+N+O+v.P+c+Q+R+S+T+U+B+B+B+f+V+4 W+X+<+k.k+G+G+g.Y+              ",
"            l.#+h.3+h.g.h.j.#+Z+`+ @.@+@B+B+B+B+B+B+B+B+@@#@$@%@&@k+k+k+k+F+G+*@=@%.            ",
"            Y+-@L+j.h.j.=+L+<+k+;@>@,@'@)@B+B+B+B+B+B+!@~@{@]@^@l+l+G+G+F+F+F+G+L+/@            ",
"          (@_@E.*@#+3+*@<+F+G+H+H+:@<@[@}@)@B+B+B+B+!@}@`.|@1@2@2@3@4@H+l+G+[+l+=+5@            ",
"          6@E.3+*@*@k.F+G+H+7@7@7@7@8@9@0@a@b@B+B+c@@.d@e@f@1+g@h@i@2@3@4@H+G+[+[+j@k@          ",
"          l@5.k+<+L+[+H+7@H+7@4@3@i@h@m@n@o@p@q@B+8+r@s@t@u@v@w@1+h@x@2@3@7@F+G+4@=+y@          ",
"        %.H+i.F+F+j.F+H+H+H+H+4@2@h@g@j@z@A@P.S U.l B@C@D@E@v@j@1+g@x@2@3@7@3+4@3@k.F@%.        ",
"        2.-@<+F+[+<+h.k.[+l+H+4@2@h@g@j@v@G@H@I@w.J@K@D@E@v@j@w@1+h@i@2@l+j.G+2@3@H+k.L@        ",
"      %.M@H.F+k+[+G+<+f.#+[+l+7@3@i@h@g@w@j@N@O@P P@v@j@w@1+1+h@x@2@4@<+i.[+2@3@4@4@*@Q@        ",
"      R@=+<+F+F+F+F+[+k+i.S@#+F+7@4@2@i@h@g@1+T@U@V@h@h@h@i@2@2@l+*@h.#+l+3@4@7@7@4@l+W@X@      ",
"      ).6.F+i.S@*@F+F+F+[+<+i.E.S@j.<+[+7@4@3@4@4@4@7@7@[+<+=+f.S@j.F+4@7@7@7@k+g.=+4@k+Y@      ",
"    n+Z@i.F+h.S@L+F+F+F+F+F+F+k+3+h.H.2+7.7.2+E.H.E.2+7.E.S@j.<+G+H+H+H+7@7@7@F+i.L+4@F+J+%.    ",
"    l.x@L+G+[+F+[+[+[+F+F+F+F+F+F+F+F+k+<+*@L+3+3+*@<+k+F+G+l+l+l+H+H+H+7@7@4@4@4@3@3@k.`@%.    ",
"    l.g@-@5.5.5.5.5.5.5.5.5.5.5.5.5.5.5. # # # # # # #6.6.6.6.6.6.7.7.7.7.7.7.7.2+2+2+f..#%.    ",
"    X@u@E@+#@#+#_@####$#%#&#=@=@Z@*#=#=#m.-#~.~.{.!.`@`@F@M@[.[.}.|.;#;#>#,#1.1.'#'#'#;#)#%.    ",
"    X@E@D@=@=@Z@*#=#m.m.-#~.{.!.`@`@F@M@[.}.|.|.;#>#,#1.'#'#J+!#!#m+m+~#{#]#^#^#^#/#/#1.Q@%.    ",
"    X@(#D@=@Z@!.5@_#^#~#:#J+1.>#;#|.}.}.}.}.|.|.;#>#,#1.'#M@-#'#{.J+`@J+[.J+|.!#`@/#/#1.<#%.    ",
"    X@(#[#=@Z@M@}#|#)#1#2#/#{#!#'#,#;#|.}.}.}.;#;#,#1.1.'#!.Z@'#=#'#-#J+!.J+M@'#-#/#/#'#3#%.    ",
"    X@D@[#Z@Z@`@4#|#)#1#2#/#{#:#'#,#;#|.|.|.|.;#;#,#1.'#J+!.Z@'#=#J+~.J+`@J+M@'#-#/#/#J+&+%.    ",
"    X@[#[#Z@*#~.5#6#7#5#2#/#{#:#'#,#>#|.|.|.|.;#>#,#1.'#J+`@*#J+m.J+~.!#`@J+M@'#-#/#/#J+|#%.    ",
"    X@$+$+Z@*#*#F@[.M@'#]#^#{#:#'#,#>#;#|.|.|.;#>#1.'#J+J+`@*#J+m.!#~.!#`@!#M@'#-#/#/#!#8#%.    ",
"    %+W@$+*#*#=@u@(#u@v@v@[#_@Z@{.M@[.[.|.|.;#>#,#1.'#J+!#`@=#J+-#!#{.!#F@!#M@J+~./#/#:#9#0#    ",
"    %.&#(#*#=#=#=#m.m.-#-#~.{.{.!.`@F@[.|.;#>#,#1.'#'#J+!#J+J+m+:#{#m+]#{#^#{#^#{#/#/#!#}#a#    ",
"    b#4#2@H+4@3@2@i@x@g@1+w@j@u@E@(#D@[#W@@#_@##%#&#=@*#=#-#~.{.`@M@[.|.;#>#,#1.'#J+!#^#/@      ",
"      c#R@d#e#e#e#e#/@/@/@/@6@6@6@6@f#f#f#f#g#g#g#G.G.G.G.h#h#h#R@R@R@i#i#i#i#i#j#j#j#l.b#      ",
"                                                                                                ",
"                                                                                                ",
"                                                                                                ",
"                                                                                                ",
"                                                                                                "};
