/* XPM */
static char * process_stop_48_xpm[] = {
"48 48 618 2",
"  	c None",
". 	c #900F0F",
"+ 	c #951515",
"@ 	c #951414",
"# 	c #951313",
"$ 	c #941313",
"% 	c #8E0C0C",
"& 	c #A12626",
"* 	c #E88080",
"= 	c #EF8787",
"- 	c #EF8686",
"; 	c #EF8585",
"> 	c #EE8484",
", 	c #EE8383",
"' 	c #EE8181",
") 	c #EE8080",
"! 	c #EE7F7F",
"~ 	c #EE7E7E",
"{ 	c #ED7C7C",
"] 	c #E27070",
"^ 	c #981919",
"/ 	c #A02525",
"( 	c #EA8383",
"_ 	c #E86B6B",
": 	c #DC4A4A",
"< 	c #DC4949",
"[ 	c #DC4848",
"} 	c #DC4747",
"| 	c #DB4747",
"1 	c #DB4646",
"2 	c #DB4545",
"3 	c #DB4444",
"4 	c #DB4343",
"5 	c #E96767",
"6 	c #E26F6F",
"7 	c #961616",
"8 	c #A02626",
"9 	c #ED8888",
"0 	c #E76868",
"a 	c #D94242",
"b 	c #D94141",
"c 	c #D94040",
"d 	c #D93F3F",
"e 	c #D83E3E",
"f 	c #D83D3D",
"g 	c #D83C3C",
"h 	c #D83B3B",
"i 	c #E86565",
"j 	c #E37070",
"k 	c #941515",
"l 	c #A32929",
"m 	c #EC8686",
"n 	c #D94444",
"o 	c #D94343",
"p 	c #D93C3C",
"q 	c #E86464",
"r 	c #E06B6B",
"s 	c #EC8585",
"t 	c #E86969",
"u 	c #DA4444",
"v 	c #E96565",
"w 	c #DE6767",
"x 	c #EE8888",
"y 	c #DA4545",
"z 	c #D83A3A",
"A 	c #E96363",
"B 	c #921111",
"C 	c #A52C2C",
"D 	c #E66666",
"E 	c #DA4646",
"F 	c #D73A3A",
"G 	c #E76262",
"H 	c #DC6363",
"I 	c #931111",
"J 	c #A62D2D",
"K 	c #ED8787",
"L 	c #DA4747",
"M 	c #D73B3B",
"N 	c #D63939",
"O 	c #D63B3B",
"P 	c #E86262",
"Q 	c #D95F5F",
"R 	c #921010",
"S 	c #EF8989",
"T 	c #E66565",
"U 	c #DA4848",
"V 	c #D73C3C",
"W 	c #D63A3A",
"X 	c #D53939",
"Y 	c #D53A3A",
"Z 	c #E76161",
"` 	c #D95D5D",
" .	c #900E0E",
"..	c #870202",
"+.	c #A72E2E",
"@.	c #F08A8A",
"#.	c #E56262",
"$.	c #E13C3C",
"%.	c #F41717",
"&.	c #E13D3D",
"*.	c #DB3A3A",
"=.	c #F11818",
"-.	c #E52929",
";.	c #D43939",
">.	c #D33838",
",.	c #D43A3A",
"'.	c #E65F5F",
").	c #D85B5B",
"!.	c #870101",
"~.	c #A82F2F",
"{.	c #EE8787",
"].	c #E13B3B",
"^.	c #FA0F0F",
"/.	c #F34C4C",
"(.	c #F91212",
"_.	c #E03D3D",
":.	c #DC3B3B",
"<.	c #F41515",
"[.	c #F44444",
"}.	c #FA1616",
"|.	c #E42828",
"1.	c #D33939",
"2.	c #D23838",
"3.	c #D23737",
"4.	c #D23939",
"5.	c #E75E5E",
"6.	c #D45656",
"7.	c #900D0D",
"8.	c #860000",
"9.	c #EF8888",
"0.	c #E56161",
"a.	c #FA1010",
"b.	c #DBDADA",
"c.	c #EB7C7C",
"d.	c #DF3D3D",
"e.	c #DB3D3D",
"f.	c #F41313",
"g.	c #F25151",
"h.	c #DDD3D3",
"i.	c #E3AAAA",
"j.	c #FA1818",
"k.	c #D13737",
"l.	c #D13636",
"m.	c #D13838",
"n.	c #E65E5E",
"o.	c #D35454",
"p.	c #8E0A0A",
"q.	c #A52B2B",
"r.	c #F18989",
"s.	c #E45D5D",
"t.	c #E13939",
"u.	c #E98787",
"v.	c #DCDBDB",
"w.	c #DCDCDC",
"x.	c #DDDCDC",
"y.	c #EC8282",
"z.	c #E03A3A",
"A.	c #DC3D3D",
"B.	c #F41616",
"C.	c #F35757",
"D.	c #DFD6D6",
"E.	c #DDDDDD",
"F.	c #E3ADAD",
"G.	c #FA2121",
"H.	c #E32A2A",
"I.	c #D03636",
"J.	c #CF3535",
"K.	c #D03737",
"L.	c #E55B5B",
"M.	c #D35353",
"N.	c #8C0808",
"O.	c #C85757",
"P.	c #EB7171",
"Q.	c #DF3B3B",
"R.	c #FA0C0C",
"S.	c #EA8686",
"T.	c #DDDBDB",
"U.	c #DEDEDE",
"V.	c #DFDFDF",
"W.	c #DFDEDE",
"X.	c #F91414",
"Y.	c #F41D1D",
"Z.	c #F45858",
"`.	c #E1D8D8",
" +	c #E4B0B0",
".+	c #FB2323",
"++	c #E02E2E",
"@+	c #CE3434",
"#+	c #D03838",
"$+	c #EC6565",
"%+	c #9C1A1A",
"&+	c #E96C6C",
"*+	c #DF3A3A",
"=+	c #FB0E0E",
"-+	c #E98F8F",
";+	c #E0E0E0",
">+	c #E1E1E1",
",+	c #E1E0E0",
"'+	c #EF8282",
")+	c #F91818",
"!+	c #DF3C3C",
"~+	c #DB3F3F",
"{+	c #F42020",
"]+	c #F55B5B",
"^+	c #E3DADA",
"/+	c #E4B9B9",
"(+	c #FB2C2C",
"_+	c #E02F2F",
":+	c #CF3636",
"<+	c #CE3535",
"[+	c #EA6262",
"}+	c #9D1A1A",
"|+	c #DF3939",
"1+	c #EC8E8E",
"2+	c #E2E2E2",
"3+	c #E3E3E3",
"4+	c #E4E3E3",
"5+	c #EF8D8D",
"6+	c #FA1F1F",
"7+	c #F52424",
"8+	c #F56565",
"9+	c #E5DDDD",
"0+	c #E7B8B8",
"a+	c #FB3434",
"b+	c #E13131",
"c+	c #CD3434",
"d+	c #EA6161",
"e+	c #C85656",
"f+	c #E96B6B",
"g+	c #E03939",
"h+	c #F92222",
"i+	c #ED9393",
"j+	c #E3E2E2",
"k+	c #E4E4E4",
"l+	c #E5E5E5",
"m+	c #E6E4E4",
"n+	c #F18E8E",
"o+	c #F92929",
"p+	c #F62929",
"q+	c #F66767",
"r+	c #E7DEDE",
"s+	c #E8BBBB",
"t+	c #FA3D3D",
"u+	c #E33232",
"v+	c #D13939",
"w+	c #CF3737",
"x+	c #CE3636",
"y+	c #CC3333",
"z+	c #CD3535",
"A+	c #EA6060",
"B+	c #FA2626",
"C+	c #EE9E9E",
"D+	c #E5E4E4",
"E+	c #E6E6E6",
"F+	c #E7E7E7",
"G+	c #F19595",
"H+	c #F57676",
"I+	c #E8E0E0",
"J+	c #E9C3C3",
"K+	c #FB4141",
"L+	c #E33535",
"M+	c #CC3434",
"N+	c #EA5F5F",
"O+	c #E96A6A",
"P+	c #FA2E2E",
"Q+	c #F09E9E",
"R+	c #E8E8E8",
"S+	c #E9E9E9",
"T+	c #ECC2C2",
"U+	c #FC4747",
"V+	c #E13838",
"W+	c #D03939",
"X+	c #CB3232",
"Y+	c #E95E5E",
"Z+	c #9C1919",
"`+	c #C85555",
" @	c #FA3838",
".@	c #F1A1A1",
"+@	c #EAEAEA",
"@@	c #EBEBEB",
"#@	c #EEC4C4",
"$@	c #FB4F4F",
"%@	c #E23A3A",
"&@	c #CE3737",
"*@	c #CC3535",
"=@	c #CB3434",
"-@	c #CB3333",
";@	c #CA3232",
">@	c #E85D5D",
",@	c #E96969",
"'@	c #FA3E3E",
")@	c #F2AAAA",
"!@	c #ECEBEB",
"~@	c #ECECEC",
"{@	c #EFCBCB",
"]@	c #FB5353",
"^@	c #E33D3D",
"/@	c #CA3030",
"(@	c #C92D2D",
"_@	c #C82D2D",
":@	c #C92F2F",
"<@	c #E75959",
"[@	c #9B1818",
"}@	c #C85454",
"|@	c #E13E3E",
"1@	c #FE4545",
"2@	c #F0CFCF",
"3@	c #EEEEEE",
"4@	c #EEE6E6",
"5@	c #FC6262",
"6@	c #E74141",
"7@	c #CD2E2E",
"8@	c #C92222",
"9@	c #C71919",
"0@	c #C41010",
"a@	c #C20A0A",
"b@	c #C00505",
"c@	c #BE0202",
"d@	c #BD0000",
"e@	c #BC0000",
"f@	c #BD0303",
"g@	c #E23434",
"h@	c #960808",
"i@	c #C75454",
"j@	c #E96868",
"k@	c #D73939",
"l@	c #F44545",
"m@	c #F98585",
"n@	c #EFE9E9",
"o@	c #EFEFEF",
"p@	c #F0F0F0",
"q@	c #EFEEEE",
"r@	c #F6AAAA",
"s@	c #F85252",
"t@	c #D63333",
"u@	c #C81717",
"v@	c #C40707",
"w@	c #C10202",
"x@	c #C00000",
"y@	c #BF0000",
"z@	c #BE0000",
"A@	c #BB0000",
"B@	c #BC0303",
"C@	c #E23333",
"D@	c #E86767",
"E@	c #D73838",
"F@	c #DA3C3C",
"G@	c #F34A4A",
"H@	c #F98686",
"I@	c #F0EAEA",
"J@	c #F1F1F1",
"K@	c #F2F2F2",
"L@	c #F0EFEF",
"M@	c #F7AAAA",
"N@	c #F65151",
"O@	c #CC0F0F",
"P@	c #C10000",
"Q@	c #BA0000",
"R@	c #BB0303",
"S@	c #E13333",
"T@	c #960707",
"U@	c #C75353",
"V@	c #D73737",
"W@	c #F44E4E",
"X@	c #F98C8C",
"Y@	c #F3F3F3",
"Z@	c #F6B0B0",
"`@	c #F75959",
" #	c #C90E0E",
".#	c #B90000",
"+#	c #E13232",
"@#	c #C75252",
"##	c #D73636",
"$#	c #F45252",
"%#	c #F99292",
"&#	c #F4F4F4",
"*#	c #F5F5F5",
"=#	c #F7DBDB",
"-#	c #F8CCCC",
";#	c #F1EFEF",
">#	c #F6B6B6",
",#	c #F65F5F",
"'#	c #C91212",
")#	c #BA0303",
"!#	c #E13030",
"~#	c #C65151",
"{#	c #E86363",
"]#	c #D73535",
"^#	c #D93B3B",
"/#	c #F6F5F5",
"(#	c #F8DBDB",
"_#	c #FC7676",
":#	c #FB6A6A",
"<#	c #FAC3C3",
"[#	c #F56767",
"}#	c #C81313",
"|#	c #B80000",
"1#	c #BA0202",
"2#	c #E12F2F",
"3#	c #950707",
"4#	c #C65050",
"5#	c #D93939",
"6#	c #F35B5B",
"7#	c #F99797",
"8#	c #F6F6F6",
"9#	c #F8DEDE",
"0#	c #FD7D7D",
"a#	c #DA2A2A",
"b#	c #CF1616",
"c#	c #F96D6D",
"d#	c #FAC8C8",
"e#	c #F6BBBB",
"f#	c #F66F6F",
"g#	c #C51212",
"h#	c #B70000",
"i#	c #B90202",
"j#	c #C64F4F",
"k#	c #D63434",
"l#	c #F35F5F",
"m#	c #F89D9D",
"n#	c #EEE9E9",
"o#	c #F8DDDD",
"p#	c #FC8282",
"q#	c #D92B2B",
"r#	c #C40000",
"s#	c #C30000",
"t#	c #CD1616",
"u#	c #F87474",
"v#	c #FAC9C9",
"w#	c #F5C0C0",
"x#	c #F67676",
"y#	c #C51515",
"z#	c #B60000",
"A#	c #B80202",
"B#	c #E02D2D",
"C#	c #C44C4C",
"D#	c #EB6A6A",
"E#	c #D73434",
"F#	c #DF4242",
"G#	c #FD7878",
"H#	c #F0D4D4",
"I#	c #FC8787",
"J#	c #DB3030",
"K#	c #C20000",
"L#	c #CE1B1B",
"M#	c #F77B7B",
"N#	c #FACDCD",
"O#	c #FC9B9B",
"P#	c #D83F3F",
"Q#	c #B70202",
"R#	c #E02C2C",
"S#	c #981818",
"T#	c #E77373",
"U#	c #D63232",
"V#	c #D53333",
"W#	c #E65151",
"X#	c #FC8D8D",
"Y#	c #F1DCDC",
"Z#	c #F6E1E1",
"`#	c #FD8E8E",
" $	c #DA3232",
".$	c #CC1D1D",
"+$	c #F98484",
"@$	c #F9D2D2",
"#$	c #FAAEAE",
"$$	c #E55D5D",
"%$	c #BB0505",
"&$	c #B50000",
"*$	c #BE0A0A",
"=$	c #E32F2F",
"-$	c #930505",
";$	c #971717",
">$	c #E46D6D",
",$	c #E85F5F",
"'$	c #D53232",
")$	c #D43232",
"!$	c #D32F2F",
"~$	c #E24848",
"{$	c #FC9191",
"]$	c #F2DEDE",
"^$	c #F5DEDE",
"/$	c #FC9393",
"($	c #D93232",
"_$	c #CA1B1B",
":$	c #F88B8B",
"<$	c #F8D2D2",
"[$	c #F1EAEA",
"}$	c #FBAFAF",
"|$	c #E45F5F",
"1$	c #C00B0B",
"2$	c #DF2C2C",
"3$	c #AB1212",
"4$	c #991919",
"5$	c #E26868",
"6$	c #D52D2D",
"7$	c #D32828",
"8$	c #D12121",
"9$	c #CF1919",
"0$	c #CC0E0E",
"a$	c #C90404",
"b$	c #C80202",
"c$	c #DE3B3B",
"d$	c #FC9898",
"e$	c #F6D2D2",
"f$	c #FB9898",
"g$	c #DB3838",
"h$	c #CB2020",
"i$	c #F78C8C",
"j$	c #F7CECE",
"k$	c #E45E5E",
"l$	c #BC0505",
"m$	c #C00C0C",
"n$	c #DE2C2C",
"o$	c #AA1212",
"p$	c #870000",
"q$	c #940C0C",
"r$	c #E04D4D",
"s$	c #E13535",
"t$	c #CB0202",
"u$	c #CA0000",
"v$	c #C90000",
"w$	c #C80000",
"x$	c #C70000",
"y$	c #C70101",
"z$	c #DD3E3E",
"A$	c #FD9393",
"B$	c #DB3B3B",
"C$	c #CA2121",
"D$	c #F88A8A",
"E$	c #C10D0D",
"F$	c #DF2D2D",
"G$	c #A71010",
"H$	c #910808",
"I$	c #DD4848",
"J$	c #CA0202",
"K$	c #C60000",
"L$	c #C50000",
"M$	c #C80B0B",
"N$	c #BA0101",
"O$	c #C30F0F",
"P$	c #DE2D2D",
"Q$	c #A30F0F",
"R$	c #930909",
"S$	c #E03434",
"T$	c #C90202",
"U$	c #DC2C2C",
"V$	c #A20E0E",
"W$	c #920808",
"X$	c #DC4444",
"Y$	c #DE3131",
"Z$	c #C70202",
"`$	c #DD2D2D",
" %	c #A00D0D",
".%	c #900707",
"+%	c #DB4242",
"@%	c #DE3232",
"#%	c #C60202",
"$%	c #C71313",
"%%	c #DC2D2D",
"&%	c #9C0B0B",
"*%	c #910707",
"=%	c #DD3131",
"-%	c #C50202",
";%	c #C81515",
">%	c #DA2C2C",
",%	c #9B0B0B",
"'%	c #D93D3D",
")%	c #DC2E2E",
"!%	c #C30202",
"~%	c #990A0A",
"{%	c #730000",
"]%	c #8E0606",
"^%	c #DB2E2E",
"/%	c #C20202",
"(%	c #CB1717",
"_%	c #950909",
":%	c #660000",
"<%	c #D63838",
"[%	c #DD3030",
"}%	c #CF1A1A",
"|%	c #CE1919",
"1%	c #CD1818",
"2%	c #CC1818",
"3%	c #CC1717",
"4%	c #CB1616",
"5%	c #CA1616",
"6%	c #C91515",
"7%	c #C81414",
"8%	c #C71414",
"9%	c #D01D1D",
"0%	c #D62A2A",
"a%	c #930808",
"b%	c #5B0000",
"c%	c #5C0000",
"d%	c #8F0606",
"e%	c #C82C2C",
"f%	c #D03131",
"g%	c #CF3030",
"h%	c #CF2F2F",
"i%	c #CE2F2F",
"j%	c #CE2E2E",
"k%	c #CD2D2D",
"l%	c #CD2C2C",
"m%	c #CD2B2B",
"n%	c #CD2929",
"o%	c #CC2828",
"p%	c #CC2727",
"q%	c #CC2626",
"r%	c #CB2525",
"s%	c #CB2424",
"t%	c #C62222",
"u%	c #580000",
"v%	c #790000",
"w%	c #780000",
"x%	c #770000",
"y%	c #760000",
"z%	c #750000",
"A%	c #740000",
"                              . + + + + + + + @ @ @ @ @ @ @ # $ %                               ",
"                            & * = - - - - - - - ; > , ' ) ! ~ { ] ^                             ",
"                          / ( _ : : : : < < < [ [ } | 1 2 2 3 4 5 6 7                           ",
"                        8 9 0 a a a a a b b c c c d e e f f g h g i j k                         ",
"                      l m 0 n o o o o o a a b b c c d e e f g g h p q r +                       ",
"                    l s t u u u u u u u o o a a b c c d e e f g h h p v w $                     ",
"                  l x 0 u u y y y y y u u u o a a b c c d e e f g h z h A w B                   ",
"                C x D y y y E E E E E y y u u o a a b c d d e f g h h F h G H I                 ",
"              J K D y y y E L L L L L E E y u u o a b c c d e f f g M F N O P Q R               ",
"            C S T u u y E L L U U U U L E E y u o a a b c d e e f V M W X X Y Z `  .            ",
"        ..+.@.#.o u y E L L U $.%.&.U L L E y u u a a b c d *.=.-.V O Y X ;.>.,.'.). .          ",
"      !.~.{.#.o o u y E L L ].^./.(._.L L E y u u a a b c :.<.[.}.|.O Y ;.1.2.3.4.5.6.7.        ",
"    8.+.9.0.b a o u u y E ].a.( b.c.^.d.E E y u o a a b e.f.g.h.i.j.|.Y ;.1.2.k.l.m.n.o.p.      ",
"    q.r.s.c b a o o u y t.a.u.v.w.x.y.^.z.y u u o a b A.B.C.D.E.w.F.G.H.1.>.2.k.I.J.K.L.M.N.    ",
"  8.O.P.c c b a a o u Q.R.S.T.E.U.V.W.~ X.z.u o a a A.Y.Z.`.V.U.U.E. +.+++2.k.k.I.J.@+#+$+%+    ",
"  8.O.&+d c c b a a o *+=+-+U.V.V.;+>+,+'+)+!+a a ~+{+]+^+>+>+;+V.U./+(+_+m.k.I.:+<+@+:+[+}+    ",
"  8.O.&+e d c c b a a o |+j.1+;+>+2+2+3+4+5+6+Q.~+7+8+9+3+3+2+>+>+0+a+b+m.K.K.:+<+<+c+<+d+}+    ",
"  8.e+f+e e d c c b b a a g+h+i+j+3+k+l+l+m+n+o+p+q+r+l+l+k+k+3+s+t+u+v+#+K.w+x+<+c+y+z+A+%+    ",
"  8.e+f+f e e d d c c b b b z.B+C+D+E+E+F+F+F+G+H+I+F+F+F+E+l+J+K+L+v+#+#+w+x+<+z+M+y+c+N+%+    ",
"  8.e+O+g f e e d d c c c c b !+P+Q+F+R+R+S+S+S+S+S+S+S+R+F+T+U+V+v+W+#+w+x+x+z+M+y+X+M+Y+Z+    ",
"  8.`+O+h g f f e e e d d d c c $. @.@S++@+@@@@@@@@@@@+@+@#@$@%@v+W+#+w+&@x+z+*@=@-@;@=@>@Z+    ",
"  8.`+,@h h g g f f e e e e d d d &.'@)@!@~@~@~@~@~@~@~@{@]@^@v+W+#+w+&@x+c+y+X+/@(@_@:@<@[@    ",
"  8.}@,@z z h h g g f f f f e e e e |@1@2@3@3@3@3@3@3@4@5@6@v+W+K.7@8@9@0@a@b@c@d@e@e@f@g@h@    ",
"  8.i@j@k@k@z z h h h g g g g g g e.l@m@n@o@p@p@p@p@p@q@r@s@t@u@v@w@x@x@y@z@z@d@e@e@A@B@C@h@    ",
"  8.i@D@E@k@k@k@z z h h h h h h F@G@H@I@p@J@J@K@K@K@J@J@L@M@N@O@P@x@x@y@z@z@d@e@e@A@Q@R@S@T@    ",
"  8.U@i V@E@E@k@k@k@k@z z z z F@W@X@I@J@K@K@Y@Y@Y@Y@Y@K@J@p@Z@`@ #x@y@z@z@d@e@A@A@Q@.#R@+#T@    ",
"  8.@#q ##V@V@V@E@E@E@k@k@k@F@$#%#I@J@K@Y@&#*#=#-#*#&#&#Y@K@;#>#,#'#z@z@d@e@A@A@Q@.#.#)#!#T@    ",
"  8.~#{#]#####V@V@V@V@E@E@^#C.%#I@J@K@Y@&#/#(#_#:#<#/#*#&#Y@J@p@>#[#}#d@e@A@A@Q@.#.#|#1#2#3#    ",
"  8.4#G ]#]#]#########V@5#6#7#n@p@J@Y@&#8#9#0#a#b#c#d#8#*#&#K@J@o@e#f#g#A@A@Q@.#.#|#h#i#_+3#    ",
"  8.j#Z k#k#k#]#]#]#]#5#l#m#n#o@p@K@&#*#o#p#q#r#s#t#u#v#8#*#Y@K@p@3@w#x#y#Q@.#.#|#h#z#A#B#3#    ",
"  8.C#D#E#t@t@k#k#k#k#F#G#H#3@o@J@Y@&#9#I#J#r#s#K#K#L#M#N#*#&#K@p@o@4@O#P#.#.#|#h#h#z#Q#R#3#    ",
"    S#T#5.t@U#U#t@t@V#k#W#X#Y#o@J@Y@Z#`# $r#s#K#K#P@x@.$+$@$&#K@p@I@#$$$%$.#|#h#h#z#&$*$=$-$    ",
"      ;$>$,$t@U#U#'$)$)$!$~${$]$J@^$/$($r#s#K#P@P@x@y@y@_$:$<$K@[$}$|$1#.#|#h#z#z#&$1$2$3$8.    ",
"        4$5$<@6$7$8$9$0$a$b$c$d$e$f$g$r#s#K#P@P@x@y@y@z@d@h$i$j$}$k$l$.#|#h#z#z#&$m$n$o$p$      ",
"          q$r$s$t$u$v$w$w$x$y$z$A$B$r#s#K#K#P@x@y@y@z@d@d@e@C$D$|$l$.#|#h#h#z#&$E$F$G$8.        ",
"            H$I$s$J$w$w$x$K$K$L$M$r#s#K#P@P@x@y@y@z@d@d@e@A@A@*$N$.#|#h#z#z#&$O$P$Q$8.          ",
"              R$3 S$T$x$K$K$L$r#r#s#K#P@P@x@y@y@z@d@d@e@A@A@Q@.#.#|#h#z#z#&$0@U$V$8.            ",
"                W$X$Y$Z$K$L$r#r#s#K#K#P@x@y@y@z@d@d@e@A@A@Q@.#.#|#h#z#z#&$0@`$ %8.              ",
"                  .%+%@%#%r#r#s#K#P@P@x@y@y@z@d@d@e@A@A@Q@.#|#|#h#z#z#&$$%%%&%8.                ",
"                    *%e =%-%s#K#P@P@x@y@y@z@d@d@e@A@A@Q@.#|#|#h#z#z#&$;%>%,%                    ",
"                      .%'%)%!%P@P@x@y@y@z@d@d@e@A@Q@Q@.#|#|#h#z#z#&$;%>%~%{%                    ",
"                        ]%p ^%/%x@y@y@z@d@d@e@A@Q@Q@.#|#|#h#z#z#&$(%>%_%:%                      ",
"                          ]%<%[%}%}%|%1%2%3%3%4%5%5%6%6%7%8%$%$%9%0%a%b%                        ",
"                          c%d%e%f%g%h%i%j%k%l%m%m%n%o%o%p%q%r%s%t%W$u%                          ",
"                              v%w%x%y%z%z%A%A%A%{%A%A%A%z%y%x%w%v%                              ",
"                                                                                                ",
"                                                                                                ",
"                                                                                                "};
